# xmcd CD database file
#
# Track frame offsets:
#	150
#	18460
#	53808
#	84571
#	115510
#	141686
#	172288
#	196252
#	231735
#	248537
#
# Disc length: 3886 seconds
#
# Revision: 0
# Processed by: cddbd v1.5.1PL0 Copyright (c) Steve Scherf et al.
# Submitted via: CDex 1.51
#
DISCID=8d0f2c0a
DTITLE=CTBR - Face
DYEAR=1900
DGENRE=ゲーム
TTITLE0=Face -Openning mix-
TTITLE1=Face -Final Space ACT-
TTITLE2=Face -Stoical Techno mix-
TTITLE3=Face -JP Spilitual Mix -
TTITLE4=Face -Rhythm ism Beat's mix-
TTITLE5=Face -Genha mix-
TTITLE6=Face -Pading Jungle mix-
TTITLE7=Face -Final Space ACT-
TTITLE8=Face -Ending mix-
TTITLE9=データトラック
EXTD=
EXTT0=
EXTT1=
EXTT2=
EXTT3=
EXTT4=
EXTT5=
EXTT6=
EXTT7=
EXTT8=
EXTT9=
PLAYORDER=
